<?xml version="1.0" encoding="UTF-8"?>
<svg xmlns="http://www.w3.org/2000/svg" xmlns:xlink="http://www.w3.org/1999/xlink" width="512px" height="512px" viewBox="0 0 512 512" version="1.1">
<g id="surface1">
<path style=" stroke:none;fill-rule:nonzero;fill:rgb(0%,0%,0%);fill-opacity:1;" d="M 456.878906 153.136719 C 442.910156 109.550781 402.0625 77.984375 353.871094 77.984375 C 298.59375 77.984375 253.070312 119.472656 246.558594 173.007812 C 246.542969 173.007812 246.527344 173.039062 246.511719 173.039062 C 220.320312 169.265625 195.742188 128.320312 170.558594 56.816406 C 114.367188 123.632812 117.792969 197.679688 134.703125 225.425781 C 98.894531 229.359375 30.046875 208.433594 0 192.046875 C 52.367188 309.121094 127.28125 366.304688 200.609375 382 C 225.472656 395.183594 253.742188 402.832031 283.871094 402.832031 C 287.054688 402.832031 290.191406 402.496094 293.328125 402.382812 L 278.398438 427.679688 L 246.863281 438.015625 L 249.40625 445.808594 L 279.96875 435.808594 L 294.335938 450.558594 L 300.207031 444.863281 L 286.207031 430.511719 L 303.167969 401.792969 C 314.832031 400.511719 326.144531 398.160156 336.992188 394.785156 L 369.328125 436.113281 L 341.921875 446.273438 L 344.769531 453.953125 L 375.855469 442.414062 L 404.480469 455.199219 L 407.824219 447.726562 L 378.609375 434.65625 L 345.070312 391.824219 C 412.847656 366.945312 461.40625 302.238281 461.984375 225.984375 C 462.816406 223.390625 463.617188 220.894531 464.238281 218.609375 C 465.488281 214.351562 512 167.984375 512 167.984375 Z M 396.113281 192.542969 C 379.726562 192.542969 366.449219 179.246094 366.449219 162.832031 C 366.449219 146.433594 379.726562 133.136719 396.113281 133.136719 C 412.511719 133.136719 425.808594 146.433594 425.808594 162.832031 C 425.808594 179.246094 412.511719 192.542969 396.113281 192.542969 Z M 396.113281 192.542969 "/>
<path style=" stroke:none;fill-rule:nonzero;fill:rgb(0%,0%,0%);fill-opacity:1;" d="M 398.160156 147.984375 C 398.769531 149.152344 399.214844 150.414062 399.214844 151.824219 C 399.214844 156.367188 395.535156 160.0625 390.992188 160.0625 C 388.335938 160.0625 386.078125 158.734375 384.609375 156.816406 C 383.777344 158.65625 383.3125 160.6875 383.3125 162.832031 C 383.3125 171.039062 389.953125 177.679688 398.160156 177.679688 C 406.382812 177.679688 413.007812 171.039062 413.007812 162.832031 C 412.992188 154.640625 406.335938 147.984375 398.160156 147.984375 Z M 398.160156 147.984375 "/>
</g>
</svg>
