<?xml version="1.0" encoding="UTF-8" standalone="no"?>
<svg
   version="1.0"
   width="456.000000pt"
   height="90.628292pt"
   viewBox="0 0 456.000000 90.628292"
   preserveAspectRatio="xMidYMid meet"
   id="svg962"
   sodipodi:docname="BMI_Formula_Metric.svg"
   inkscape:version="1.1 (c4e8f9e, 2021-05-24)"
   xmlns:inkscape="http://www.inkscape.org/namespaces/inkscape"
   xmlns:sodipodi="http://sodipodi.sourceforge.net/DTD/sodipodi-0.dtd"
   xmlns="http://www.w3.org/2000/svg"
   xmlns:svg="http://www.w3.org/2000/svg">
  <defs
     id="defs966" />
  <sodipodi:namedview
     id="namedview964"
     pagecolor="#505050"
     bordercolor="#ffffff"
     borderopacity="1"
     inkscape:pageshadow="0"
     inkscape:pageopacity="0"
     inkscape:pagecheckerboard="1"
     inkscape:document-units="pt"
     showgrid="false"
     inkscape:zoom="1.2319079"
     inkscape:cx="304"
     inkscape:cy="60.4753"
     inkscape:window-width="1312"
     inkscape:window-height="847"
     inkscape:window-x="0"
     inkscape:window-y="25"
     inkscape:window-maximized="0"
     inkscape:current-layer="g960" />
  <metadata
     id="metadata904">
Created by potrace 1.12, written by Peter Selinger 2001-2015
</metadata>
  <g
     transform="translate(-30.000000,122.018040) scale(0.100000,-0.100000)"
     fill="#000000"
     stroke="none"
     id="g960">
    <path
       d="M2793 1204 c-9 -24 10 -49 37 -49 27 0 46 25 37 49 -9 22 -65 22 -74 0z"
       id="path906"
       style="fill:#123c69;fill-opacity:1" />
    <path
       d="M3160 1060 l0 -150 40 0 40 0 0 64 c0 80 6 96 36 96 23 0 24 -2 24 -80 l0 -80 40 0 40 0 0 90 c0 77 -3 93 -20 110 -23 23 -88 28 -108 8 -9 -9 -12 0 -12 40 l0 52 -40 0 -40 0 0 -150z"
       id="path908"
       style="fill:#123c69;fill-opacity:1" />
    <path
       d="M3860 1060 l0 -150 40 0 c37 0 40 2 40 29 0 16 6 34 13 40 11 8 18 2 36 -29 21 -37 25 -40 68 -40 l45 0 -17 28 c-10 15 -29 43 -41 62 -20 28 -22 37 -11 51 6 9 22 31 35 48 l23 31 -39 0 c-35 0 -45 -6 -76 -42 l-36 -43 0 83 0 82 -40 0 -40 0 0 -150z"
       id="path910"
       style="fill:#123c69;fill-opacity:1" />
    <path
       d="M3740 1168 c-25 -41 -34 -103 -27 -184 6 -83 32 -128 76 -132 l32 -3 -15 28 c-39 76 -39 219 0 295 14 28 14 28 -16 28 -23 0 -35 -7 -50 -32z"
       id="path912"
       style="fill:#123c69;fill-opacity:1" />
    <path
       d="M4381 1150 c13 -33 19 -75 19 -125 0 -50 -6 -92 -19 -125 l-20 -51 32 3 c50 5 72 59 72 173 0 114 -22 168 -72 173 l-32 3 20 -51z"
       id="path914"
       style="fill:#123c69;fill-opacity:1" />
    <path
       d="M3461 1157 c-5 -13 -16 -29 -25 -36 -18 -15 -22 -51 -6 -51 6 0 10 -24 10 -52 0 -29 6 -64 13 -78 11 -22 19 -25 67 -25 53 0 55 1 58 28 3 24 0 27 -27 27 -30 0 -31 1 -31 50 0 47 2 50 25 50 21 0 25 5 25 30 0 25 -4 30 -25 30 -20 0 -25 5 -25 25 0 20 -5 25 -25 25 -17 0 -28 -7 -34 -23z"
       id="path916"
       style="fill:#123c69;fill-opacity:1" />
    <path
       d="M4190 1132 c-57 -8 -88 -73 -56 -117 10 -15 11 -23 2 -37 -8 -13 -8 -23 1 -37 11 -17 10 -21 -6 -26 -25 -8 -33 -29 -21 -60 l10 -25 -516 0 -515 0 20 26 c44 56 12 104 -68 104 -62 0 -75 16 -19 23 50 7 81 36 81 76 0 19 5 31 14 31 7 0 13 9 13 20 0 18 -7 20 -83 20 -102 0 -127 -13 -127 -69 0 -22 6 -44 15 -51 14 -12 14 -15 -1 -31 -14 -15 -15 -21 -4 -34 11 -13 10 -18 -8 -31 -24 -17 -29 -53 -10 -72 9 -9 -105 -12 -513 -12 -452 0 -528 -2 -545 -15 -19 -15 -19 -15 0 -30 17 -13 199 -15 1497 -15 813 0 1484 3 1493 6 9 3 16 14 16 24 0 10 -7 21 -16 24 -9 3 -135 6 -281 6 -257 0 -266 1 -250 18 21 23 22 76 1 96 -10 10 -33 16 -64 16 -62 0 -73 16 -17 23 48 7 77 35 77 77 0 16 7 30 15 34 8 3 15 12 15 20 0 11 -16 15 -62 18 -35 1 -74 1 -88 0z m-1160 -72 c0 -23 -4 -30 -20 -30 -16 0 -20 7 -20 30 0 23 4 30 20 30 16 0 20 -7 20 -30z m1205 0 c0 -29 -32 -41 -41 -16 -9 24 4 48 23 44 12 -2 18 -12 18 -28z m-1175 -175 c0 -19 -65 -31 -85 -15 -23 19 -8 30 41 30 32 0 44 -4 44 -15z m1205 6 c7 -13 -27 -31 -59 -31 -27 0 -41 14 -31 30 8 13 82 13 90 1z"
       id="path918"
       style="fill:#123c69;fill-opacity:1" />
    <path
       d="M2160 1123 c0 -4 13 -53 29 -108 l28 -100 40 -3 41 -3 18 78 18 78 8 -40 c25 -116 25 -116 70 -113 l41 3 22 80 c41 151 41 137 -1 133 -37 -3 -37 -3 -55 -73 -9 -38 -17 -60 -18 -48 0 12 -6 44 -13 72 l-11 51 -43 0 -42 0 -11 -50 c-6 -28 -11 -58 -11 -67 0 -32 -13 -3 -24 54 -12 57 -12 58 -49 61 -20 2 -37 0 -37 -5z"
       id="path920"
       style="fill:#123c69;fill-opacity:1" />
    <path
       d="M2565 1104 c-41 -44 -38 -126 6 -167 27 -25 36 -28 92 -25 59 3 62 4 65 31 3 27 2 27 -36 21 -39 -6 -82 7 -82 26 0 6 32 10 71 10 l72 0 -6 41 c-8 63 -39 89 -104 89 -45 0 -58 -4 -78 -26z m109 -39 c4 -12 -3 -15 -29 -15 -26 0 -33 3 -29 15 4 8 16 15 29 15 13 0 25 -7 29 -15z"
       id="path922"
       style="fill:#123c69;fill-opacity:1" />
    <path
       d="M2790 1020 l0 -110 40 0 40 0 0 110 0 110 -40 0 -40 0 0 -110z"
       id="path924"
       style="fill:#123c69;fill-opacity:1" />
    <path
       d="M300 810 l0 -180 90 0 c137 0 190 31 190 111 0 29 -6 43 -27 58 -23 19 -25 23 -10 34 27 20 38 62 25 98 -15 45 -57 59 -173 59 l-95 0 0 -180z m164 94 c9 -8 16 -17 16 -19 0 -13 -35 -35 -56 -35 -21 0 -24 5 -24 35 0 30 3 35 24 35 14 0 32 -7 40 -16z m4 -133 c8 -4 12 -19 10 -32 -2 -20 -10 -25 -40 -27 -37 -3 -38 -3 -38 32 0 33 3 36 28 36 15 0 33 -4 40 -9z"
       id="path926"
       style="fill:#123c69;fill-opacity:1" />
    <path
       d="M640 810 l0 -180 45 0 45 0 1 118 1 117 18 -60 c10 -33 26 -86 35 -117 l16 -58 47 0 47 0 37 128 36 127 1 -127 1 -128 45 0 45 0 0 180 0 180 -68 0 -67 0 -35 -120 c-18 -66 -37 -120 -40 -120 -3 0 -22 54 -40 120 l-35 120 -67 0 -68 0 0 -180z"
       id="path928"
       style="fill:#123c69;fill-opacity:1" />
    <path
       d="M1130 810 l0 -180 50 0 50 0 0 180 0 180 -50 0 -50 0 0 -180z"
       id="path930"
       style="fill:#123c69;fill-opacity:1" />
    <path
       d="M1420 865 l0 -35 125 0 125 0 0 35 0 35 -125 0 -125 0 0 -35z"
       id="path932"
       style="fill:#123c69;fill-opacity:1" />
    <path
       d="M1420 755 l0 -35 125 0 125 0 0 35 0 35 -125 0 -125 0 0 -35z"
       id="path934"
       style="fill:#123c69;fill-opacity:1" />
    <path
       d="M3529 727 c-14 -11 -15 -16 -4 -30 11 -16 16 -16 34 -5 15 9 23 10 32 1 8 -8 0 -24 -35 -61 -66 -70 -63 -82 24 -82 63 0 70 2 70 20 0 16 -7 20 -36 20 l-36 0 36 40 c40 45 43 56 20 88 -17 25 -77 30 -105 9z"
       id="path936"
       style="fill:#123c69;fill-opacity:1" />
    <path
       d="M2673 704 c-9 -24 10 -49 37 -49 27 0 46 25 37 49 -9 22 -65 22 -74 0z"
       id="path938"
       style="fill:#123c69;fill-opacity:1" />
    <path
       d="M2160 560 l0 -150 35 0 35 0 0 61 c0 68 12 99 39 99 23 0 31 -26 31 -102 l0 -58 35 0 35 0 0 88 c0 110 -12 132 -74 132 -23 0 -47 -5 -54 -12 -9 -9 -12 0 -12 40 l0 52 -35 0 -35 0 0 -150z"
       id="path940"
       style="fill:#123c69;fill-opacity:1" />
    <path
       d="M3040 560 l0 -150 40 0 40 0 0 64 c0 80 6 96 36 96 23 0 24 -2 24 -80 l0 -80 40 0 40 0 0 90 c0 77 -3 93 -20 110 -23 23 -88 28 -108 8 -9 -9 -12 0 -12 40 l0 52 -40 0 -40 0 0 -150z"
       id="path942"
       style="fill:#123c69;fill-opacity:1" />
    <path
       d="M4279 697 c-14 -11 -15 -16 -4 -30 11 -16 16 -16 34 -5 15 9 23 10 32 1 8 -8 0 -24 -35 -61 -66 -70 -63 -82 24 -82 63 0 70 2 70 20 0 16 -7 20 -36 20 l-36 0 36 40 c40 45 43 56 20 88 -17 25 -77 30 -105 9z"
       id="path944"
       style="fill:#123c69;fill-opacity:1" />
    <path
       d="M3717 653 c-16 -36 -21 -68 -21 -128 0 -60 5 -92 21 -127 19 -43 25 -48 54 -48 26 0 30 3 24 18 -22 52 -35 111 -35 157 0 46 13 105 35 158 6 14 2 17 -24 17 -29 0 -35 -5 -54 -47z"
       id="path946"
       style="fill:#123c69;fill-opacity:1" />
    <path
       d="M4450 698 c0 -2 9 -27 20 -56 32 -83 27 -177 -15 -274 -6 -15 -2 -18 24 -18 26 0 34 7 53 43 18 34 22 58 22 132 0 74 -4 98 -22 133 -19 35 -27 42 -52 42 -17 0 -30 -1 -30 -2z"
       id="path948"
       style="fill:#123c69;fill-opacity:1" />
    <path
       d="M3341 657 c-5 -13 -16 -29 -25 -36 -18 -15 -22 -51 -6 -51 6 0 10 -24 10 -52 0 -29 6 -64 13 -78 11 -22 19 -25 67 -25 53 0 55 1 58 28 3 24 0 27 -27 27 -30 0 -31 1 -31 50 0 47 2 50 25 50 21 0 25 5 25 30 0 25 -4 30 -25 30 -20 0 -25 5 -25 25 0 20 -5 25 -25 25 -17 0 -28 -7 -34 -23z"
       id="path950"
       style="fill:#123c69;fill-opacity:1" />
    <path
       d="M2445 604 c-41 -44 -38 -126 6 -167 27 -25 36 -28 92 -25 59 3 62 4 65 31 3 27 2 27 -36 21 -39 -6 -82 7 -82 26 0 6 32 10 71 10 l72 0 -6 41 c-8 63 -39 89 -104 89 -45 0 -58 -4 -78 -26z m109 -39 c4 -12 -3 -15 -29 -15 -26 0 -33 3 -29 15 4 8 16 15 29 15 13 0 25 -7 29 -15z"
       id="path952"
       style="fill:#123c69;fill-opacity:1" />
    <path
       d="M2670 520 l0 -110 40 0 40 0 0 110 0 110 -40 0 -40 0 0 -110z"
       id="path954"
       style="fill:#123c69;fill-opacity:1" />
    <path
       d="M2822 614 c-27 -18 -31 -84 -7 -104 14 -12 14 -15 -1 -31 -14 -15 -15 -21 -4 -34 11 -13 10 -18 -8 -31 -26 -18 -28 -55 -4 -76 43 -39 150 -29 190 17 46 54 14 105 -67 105 -62 0 -75 16 -19 23 50 7 81 36 81 76 0 19 5 31 14 31 7 0 13 9 13 20 0 18 -7 20 -83 20 -59 0 -89 -5 -105 -16z m88 -54 c0 -23 -4 -30 -20 -30 -16 0 -20 7 -20 30 0 23 4 30 20 30 16 0 20 -7 20 -30z m30 -175 c0 -19 -65 -31 -85 -15 -23 19 -8 30 41 30 32 0 44 -4 44 -15z"
       id="path956"
       style="fill:#123c69;fill-opacity:1" />
    <path
       d="M3850 520 l0 -110 40 0 39 0 3 78 c3 71 5 77 26 80 21 3 22 1 22 -77 l0 -81 40 0 40 0 0 69 c0 51 4 74 16 86 29 29 44 1 44 -81 l0 -74 41 0 41 0 -4 96 c-2 81 -6 98 -22 110 -24 17 -88 18 -104 2 -10 -10 -17 -10 -32 0 -26 16 -92 16 -109 0 -11 -10 -14 -10 -18 0 -3 6 -18 12 -34 12 l-29 0 0 -110z"
       id="path958"
       style="fill:#123c69;fill-opacity:1" />
  </g>
</svg>
