<?xml version="1.0" encoding="UTF-8" standalone="no"?>
<svg
   version="1.0"
   width="610.721982pt"
   height="90.527212pt"
   viewBox="0 0 610.721982 90.527212"
   preserveAspectRatio="xMidYMid meet"
   id="svg207"
   sodipodi:docname="BMI_Formula_Imperic.svg"
   inkscape:version="1.1 (c4e8f9e, 2021-05-24)"
   xmlns:inkscape="http://www.inkscape.org/namespaces/inkscape"
   xmlns:sodipodi="http://sodipodi.sourceforge.net/DTD/sodipodi-0.dtd"
   xmlns="http://www.w3.org/2000/svg"
   xmlns:svg="http://www.w3.org/2000/svg">
  <defs
     id="defs211" />
  <sodipodi:namedview
     id="namedview209"
     pagecolor="#505050"
     bordercolor="#ffffff"
     borderopacity="1"
     inkscape:pageshadow="0"
     inkscape:pageopacity="0"
     inkscape:pagecheckerboard="1"
     inkscape:document-units="pt"
     showgrid="false"
     inkscape:zoom="1.4036665"
     inkscape:cx="266.80126"
     inkscape:cy="60.199484"
     inkscape:window-width="1312"
     inkscape:window-height="847"
     inkscape:window-x="0"
     inkscape:window-y="25"
     inkscape:window-maximized="0"
     inkscape:current-layer="svg207" />
  <metadata
     id="metadata135">
Created by potrace 1.12, written by Peter Selinger 2001-2015
</metadata>
  <g
     transform="translate(-47.000000,136.916960) scale(0.100000,-0.100000)"
     fill="#000000"
     stroke="none"
     id="g205"
     style="fill:#123c69;fill-opacity:1">
    <path
       d="M3027 1364 c-4 -4 -7 -18 -7 -30 0 -31 44 -44 68 -20 13 13 14 20 6 34 -11 18 -55 28 -67 16z"
       id="path137"
       style="fill:#123c69;fill-opacity:1" />
    <path
       d="M3390 1210 l0 -150 40 0 40 0 0 75 c0 62 3 76 18 84 31 16 42 -6 42 -86 l0 -73 40 0 40 0 0 84 c0 103 -19 136 -79 136 -20 0 -42 -5 -49 -12 -9 -9 -12 0 -12 40 l0 52 -40 0 -40 0 0 -150z"
       id="path139"
       style="fill:#123c69;fill-opacity:1" />
    <path
       d="M4090 1210 l0 -150 40 0 40 0 0 150 0 150 -40 0 -40 0 0 -150z"
       id="path141"
       style="fill:#123c69;fill-opacity:1" />
    <path
       d="M4220 1210 l0 -150 29 0 c17 0 33 5 36 10 4 7 12 7 25 0 35 -19 77 -12 99 16 16 20 21 41 21 84 0 72 -25 110 -74 110 -17 0 -37 -5 -44 -12 -9 -9 -12 0 -12 40 l0 52 -40 0 -40 0 0 -150z m135 -10 c4 -11 3 -34 0 -51 -5 -24 -11 -29 -28 -27 -17 2 -23 11 -25 36 -2 19 -1 40 2 48 8 21 44 17 51 -6z"
       id="path143"
       style="fill:#123c69;fill-opacity:1" />
    <path
       d="M3970 1318 c-25 -41 -34 -103 -27 -184 6 -83 32 -128 76 -132 l32 -3 -15 28 c-39 76 -39 219 0 295 14 28 14 28 -16 28 -23 0 -35 -7 -50 -32z"
       id="path145"
       style="fill:#123c69;fill-opacity:1" />
    <path
       d="M4491 1300 c13 -33 19 -75 19 -125 0 -50 -6 -92 -19 -125 l-20 -51 32 3 c50 5 72 59 72 173 0 114 -22 168 -72 173 l-32 3 20 -51z"
       id="path147"
       style="fill:#123c69;fill-opacity:1" />
    <path
       d="M3682 1296 c-12 -20 -26 -36 -32 -36 -16 0 -12 -30 5 -36 11 -5 15 -22 15 -63 0 -80 17 -101 81 -101 48 0 49 1 49 30 0 25 -4 30 -25 30 -23 0 -25 3 -25 50 0 47 2 50 25 50 21 0 25 5 25 30 0 25 -4 30 -24 30 -18 0 -25 6 -28 23 -5 38 -42 34 -66 -7z"
       id="path149"
       style="fill:#123c69;fill-opacity:1" />
    <path
       d="M2390 1273 c0 -4 13 -53 29 -108 l28 -100 40 -3 41 -3 18 78 18 78 8 -40 c25 -116 25 -116 70 -113 l41 3 22 80 c41 151 41 137 -1 133 -37 -3 -37 -3 -55 -73 -9 -38 -17 -60 -18 -48 0 12 -6 44 -13 72 l-11 51 -43 0 -42 0 -11 -50 c-6 -28 -11 -58 -11 -67 0 -32 -13 -3 -24 54 -12 57 -12 58 -49 61 -20 2 -37 0 -37 -5z"
       id="path151"
       style="fill:#123c69;fill-opacity:1" />
    <path
       d="M2795 1256 c-49 -49 -40 -152 15 -181 29 -15 105 -20 134 -9 9 3 16 17 16 30 0 22 -3 23 -45 17 -29 -4 -50 -1 -60 7 -28 23 -15 30 55 30 76 0 77 0 60 62 -14 49 -43 68 -103 68 -37 0 -53 -5 -72 -24z m103 -43 c2 -9 -7 -13 -27 -13 -30 0 -39 9 -24 24 11 10 46 3 51 -11z"
       id="path153"
       style="fill:#123c69;fill-opacity:1" />
    <path
       d="M3020 1170 l0 -110 40 0 40 0 0 110 0 110 -40 0 -40 0 0 -110z"
       id="path155"
       style="fill:#123c69;fill-opacity:1" />
    <path
       d="M3161 1254 c-12 -15 -21 -34 -21 -44 0 -10 9 -29 21 -44 11 -14 16 -26 10 -26 -15 0 -24 -39 -12 -53 7 -9 5 -16 -10 -25 -23 -15 -25 -55 -3 -76 14 -15 -36 -16 -556 -16 -514 0 -571 -2 -577 -16 -3 -9 0 -20 8 -25 8 -5 654 -8 1509 -6 1488 2 1495 2 1495 22 0 20 -8 20 -863 23 l-863 2 27 23 c20 17 27 33 27 57 0 43 -24 60 -84 60 -60 0 -72 16 -18 23 53 7 79 31 79 74 0 23 5 33 15 33 8 0 15 9 15 20 0 19 -7 20 -89 20 -85 0 -91 -1 -110 -26z m97 -47 c3 -22 -1 -27 -17 -27 -17 0 -21 6 -21 31 0 24 4 30 18 27 10 -2 18 -14 20 -31z m27 -166 c7 -12 -26 -31 -52 -31 -26 0 -47 16 -39 29 9 13 83 15 91 2z"
       id="path157"
       style="fill:#123c69;fill-opacity:1" />
    <path
       d="M6115 1143 c-71 -18 -110 -130 -85 -248 17 -84 51 -115 122 -115 95 0 128 46 128 177 -1 101 -24 157 -74 178 -36 15 -55 17 -91 8z m56 -90 c22 -25 19 -167 -3 -190 -28 -27 -42 -2 -46 80 -4 70 8 127 27 127 4 0 15 -7 22 -17z"
       id="path159"
       style="fill:#123c69;fill-opacity:1" />
    <path
       d="M6395 1141 c-16 -4 -40 -13 -52 -20 -24 -12 -23 -15 13 -69 2 -2 19 1 38 8 47 15 78 5 74 -23 -2 -17 -13 -24 -45 -31 -40 -9 -43 -12 -43 -43 0 -29 3 -33 26 -33 39 0 64 -18 64 -45 0 -20 -6 -25 -34 -30 -19 -4 -44 -4 -55 -1 -65 19 -61 20 -61 -22 0 -47 10 -52 111 -52 52 0 73 5 100 23 65 44 60 132 -9 158 l-27 11 26 13 c53 29 61 108 13 140 -29 19 -98 27 -139 16z"
       id="path161"
       style="fill:#123c69;fill-opacity:1" />
    <path
       d="M470 961 l0 -181 90 0 c100 0 148 14 174 51 25 36 20 85 -10 116 l-25 25 20 22 c30 32 28 86 -5 117 -23 22 -35 24 -135 27 l-109 4 0 -181z m154 103 c35 -14 11 -64 -31 -64 -20 0 -23 5 -23 35 0 36 15 44 54 29z m19 -155 c17 -28 1 -49 -38 -49 -33 0 -35 2 -35 36 0 34 1 35 31 32 18 -2 37 -10 42 -19z"
       id="path163"
       style="fill:#123c69;fill-opacity:1" />
    <path
       d="M810 960 l0 -180 45 0 45 0 1 118 1 117 18 -60 c10 -33 26 -86 35 -117 l16 -58 47 0 47 0 37 128 36 127 1 -127 1 -128 45 0 45 0 0 180 0 180 -68 0 -67 0 -35 -120 c-18 -66 -37 -120 -40 -120 -3 0 -22 54 -40 120 l-35 120 -67 0 -68 0 0 -180z"
       id="path165"
       style="fill:#123c69;fill-opacity:1" />
    <path
       d="M1300 960 l0 -180 50 0 50 0 0 180 0 180 -50 0 -50 0 0 -180z"
       id="path167"
       style="fill:#123c69;fill-opacity:1" />
    <path
       d="M5730 1100 l0 -40 75 0 c41 0 75 -2 75 -4 0 -2 -27 -64 -60 -137 l-59 -134 46 -3 c25 -2 49 0 53 5 17 17 130 304 130 328 l0 25 -130 0 -130 0 0 -40z"
       id="path169"
       style="fill:#123c69;fill-opacity:1" />
    <path
       d="M5270 1056 c0 -3 18 -34 41 -70 l41 -65 -20 -28 c-10 -15 -31 -47 -46 -70 l-26 -43 54 0 c53 0 55 1 78 42 l25 41 23 -41 c23 -41 25 -42 77 -42 l54 0 -15 28 c-8 15 -28 47 -45 71 l-29 43 43 67 43 66 -51 3 c-40 3 -54 0 -62 -14 -5 -9 -17 -26 -27 -38 -16 -21 -16 -21 -34 17 -17 36 -19 37 -71 37 -29 0 -53 -2 -53 -4z"
       id="path171"
       style="fill:#123c69;fill-opacity:1" />
    <path
       d="M1590 1015 l0 -35 125 0 125 0 0 35 0 35 -125 0 -125 0 0 -35z"
       id="path173"
       style="fill:#123c69;fill-opacity:1" />
    <path
       d="M1590 905 l0 -35 125 0 125 0 0 35 0 35 -125 0 -125 0 0 -35z"
       id="path175"
       style="fill:#123c69;fill-opacity:1" />
    <path
       d="M3695 866 c-16 -12 -17 -16 -6 -30 10 -11 18 -13 31 -6 54 29 54 -13 0 -65 -22 -21 -40 -47 -40 -57 0 -16 9 -18 70 -18 63 0 70 2 70 20 0 16 -7 20 -37 20 l-37 0 32 33 c34 35 43 82 20 105 -16 16 -80 15 -103 -2z"
       id="path177"
       style="fill:#123c69;fill-opacity:1" />
    <path
       d="M2843 854 c-9 -24 10 -49 37 -49 27 0 46 25 37 49 -9 22 -65 22 -74 0z"
       id="path179"
       style="fill:#123c69;fill-opacity:1" />
    <path
       d="M4027 863 c-13 -12 -7 -51 9 -57 24 -9 31 -8 48 10 12 12 13 20 6 35 -10 18 -50 26 -63 12z"
       id="path181"
       style="fill:#123c69;fill-opacity:1" />
    <path
       d="M2330 710 l0 -150 35 0 35 0 0 61 c0 68 12 99 39 99 23 0 31 -26 31 -102 l0 -58 35 0 35 0 0 88 c0 110 -12 132 -74 132 -23 0 -47 -5 -54 -12 -9 -9 -12 0 -12 40 l0 52 -35 0 -35 0 0 -150z"
       id="path183"
       style="fill:#123c69;fill-opacity:1" />
    <path
       d="M3210 710 l0 -150 40 0 40 0 0 64 c0 80 6 96 36 96 23 0 24 -2 24 -80 l0 -80 40 0 40 0 0 90 c0 77 -3 93 -20 110 -23 23 -88 28 -108 8 -9 -9 -12 0 -12 40 l0 52 -40 0 -40 0 0 -150z"
       id="path185"
       style="fill:#123c69;fill-opacity:1" />
    <path
       d="M4445 846 c-16 -12 -17 -16 -6 -30 10 -11 18 -13 31 -6 54 29 54 -13 0 -65 -22 -21 -40 -47 -40 -57 0 -16 9 -18 70 -18 63 0 70 2 70 20 0 16 -7 20 -37 20 l-37 0 32 33 c34 35 43 82 20 105 -16 16 -80 15 -103 -2z"
       id="path187"
       style="fill:#123c69;fill-opacity:1" />
    <path
       d="M3887 803 c-16 -36 -21 -68 -21 -128 0 -60 5 -92 21 -127 19 -43 25 -48 54 -48 26 0 30 3 24 18 -22 52 -35 111 -35 157 0 46 13 105 35 158 6 14 2 17 -24 17 -29 0 -35 -5 -54 -47z"
       id="path189"
       style="fill:#123c69;fill-opacity:1" />
    <path
       d="M4633 808 c31 -62 31 -205 1 -265 l-21 -43 34 0 c31 0 36 4 55 48 16 35 22 67 22 127 0 60 -6 92 -22 128 -19 43 -24 47 -56 47 l-34 0 21 -42z"
       id="path191"
       style="fill:#123c69;fill-opacity:1" />
    <path
       d="M3511 807 c-5 -13 -16 -29 -25 -36 -18 -15 -22 -51 -6 -51 6 0 10 -24 10 -52 0 -29 6 -64 13 -78 11 -22 19 -25 67 -25 53 0 55 1 58 28 3 24 0 27 -27 27 -30 0 -31 1 -31 50 0 47 2 50 25 50 21 0 25 5 25 30 0 25 -4 30 -25 30 -20 0 -25 5 -25 25 0 20 -5 25 -25 25 -17 0 -28 -7 -34 -23z"
       id="path193"
       style="fill:#123c69;fill-opacity:1" />
    <path
       d="M2615 754 c-41 -44 -38 -126 6 -167 27 -25 36 -28 92 -25 59 3 62 4 65 31 3 27 2 27 -36 21 -39 -6 -82 7 -82 26 0 6 32 10 71 10 l72 0 -6 41 c-8 63 -39 89 -104 89 -45 0 -58 -4 -78 -26z m109 -39 c4 -12 -3 -15 -29 -15 -26 0 -33 3 -29 15 4 8 16 15 29 15 13 0 25 -7 29 -15z"
       id="path195"
       style="fill:#123c69;fill-opacity:1" />
    <path
       d="M2840 670 l0 -110 40 0 40 0 0 110 0 110 -40 0 -40 0 0 -110z"
       id="path197"
       style="fill:#123c69;fill-opacity:1" />
    <path
       d="M2992 764 c-27 -18 -31 -84 -7 -104 14 -12 14 -15 -1 -31 -14 -15 -15 -21 -4 -34 11 -13 10 -18 -8 -31 -26 -18 -28 -55 -4 -76 43 -39 150 -29 190 17 46 54 14 105 -67 105 -62 0 -75 16 -19 23 50 7 81 36 81 76 0 19 5 31 14 31 7 0 13 9 13 20 0 18 -7 20 -83 20 -59 0 -89 -5 -105 -16z m88 -54 c0 -23 -4 -30 -20 -30 -16 0 -20 7 -20 30 0 23 4 30 20 30 16 0 20 -7 20 -30z m30 -175 c0 -19 -65 -31 -85 -15 -23 19 -8 30 41 30 32 0 44 -4 44 -15z"
       id="path199"
       style="fill:#123c69;fill-opacity:1" />
    <path
       d="M4020 670 l0 -110 35 0 35 0 0 110 0 110 -35 0 -35 0 0 -110z"
       id="path201"
       style="fill:#123c69;fill-opacity:1" />
    <path
       d="M4150 670 l0 -110 35 0 35 0 0 61 c0 68 12 99 39 99 25 0 31 -19 31 -96 l0 -64 35 0 35 0 0 88 c0 110 -12 132 -74 132 -23 0 -48 -6 -55 -12 -11 -10 -14 -10 -18 0 -3 6 -18 12 -34 12 l-29 0 0 -110z"
       id="path203"
       style="fill:#123c69;fill-opacity:1" />
  </g>
</svg>
